<svg width="42" height="73" viewBox="0 0 42 73" fill="none" xmlns="http://www.w3.org/2000/svg">
<path d="M5.28409 58V14.3636H20.0284C23.4375 14.3636 26.2358 14.946 28.4233 16.1108C30.6108 17.2614 32.2301 18.8452 33.2812 20.8622C34.3324 22.8793 34.858 25.1733 34.858 27.7443C34.858 30.3153 34.3324 32.5952 33.2812 34.5838C32.2301 36.5724 30.6179 38.1349 28.4446 39.2713C26.2713 40.3935 23.4943 40.9545 20.1136 40.9545H8.18182V36.1818H19.9432C22.2727 36.1818 24.1477 35.8409 25.5682 35.1591C27.0028 34.4773 28.0398 33.5114 28.679 32.2614C29.3324 30.9972 29.6591 29.4915 29.6591 27.7443C29.6591 25.9972 29.3324 24.4702 28.679 23.1634C28.0256 21.8565 26.9815 20.848 25.5469 20.1378C24.1122 19.4134 22.2159 19.0511 19.858 19.0511H10.5682V58H5.28409ZM25.8239 38.3977L36.5625 58H30.4261L19.858 38.3977H25.8239Z" fill="white"/>
<path d="M5.89773 19.0511V14.3636H38.625V19.0511H24.9034V58H19.6193V19.0511H5.89773Z" fill="white"/>
</svg>
